<svg width="52" height="52" viewBox="0 0 52 52" fill="none" xmlns="http://www.w3.org/2000/svg">
<path d="M16.2788 16.4948C15.4254 15.6985 14.8914 14.5608 14.8914 13.2977C14.8914 10.8897 16.8325 8.9375 19.227 8.9375C21.6214 8.9375 23.5625 10.8897 23.5625 13.2977V38.2384M23.5625 38.296C23.5625 40.7042 21.6214 42.6562 19.227 42.6562C16.8325 42.6562 14.8914 40.7042 14.8914 38.296C14.8914 37.0329 15.6406 35.9531 16.2788 35.099M16.2788 35.099C15.6406 35.6945 14.6609 36.7638 13.693 37.0246C11.3802 37.6478 9.00282 36.2675 8.38309 33.9414C7.96295 32.3645 8.45845 30.7578 9.54184 29.6923M16.2788 35.099L16.4531 34.9375M9.34196 21.374C8.39901 20.3139 7.98972 18.8114 8.38309 17.335C9.00282 15.0089 11.3802 13.6286 13.693 14.2519C14.1281 14.3691 14.5299 14.5489 14.8914 14.779M11.0762 21.0855C9.06912 20.9717 7.18965 22.2814 6.64881 24.3114C6.02907 26.6374 7.40163 29.0284 9.71449 29.6516C10.1705 29.7745 10.6291 29.8195 11.0762 29.7947M16.1303 26.8117C16.0172 28.8301 17.3195 30.7203 19.3379 31.2643C20.7429 31.6429 22.1716 31.2822 23.2157 30.4193M28.0312 38.296V13.3554M28.0312 13.2977C28.0312 10.8897 29.9724 8.9375 32.3668 8.9375C34.7612 8.9375 36.7023 10.8897 36.7023 13.2977C36.7023 14.5608 35.9531 15.8438 35.3149 16.4948M35.3149 16.4948C35.3149 16.4948 36.9329 14.83 37.9007 14.5691C40.2136 13.9459 42.5908 15.3263 43.2108 17.6523C43.6308 19.2292 43.1352 20.8359 42.0517 21.9015M35.3149 16.4948L35.1406 16.6562M44.9451 27.2823C45.5646 24.9563 44.1923 22.5654 41.8791 21.9421C41.4233 21.8192 40.9646 21.7743 40.5176 21.799M35.4634 21.8438C35.5765 23.8623 34.2742 25.7525 32.2557 26.2964C30.8508 26.675 29.4221 26.3143 28.378 25.4514M37.7812 38.5938V37.7812M42.25 38.5938V37.7812M39.8125 33.3125V31.2812" stroke="black" stroke-width="1.84" stroke-linecap="round"/>
<path d="M42.6562 33.7188H37.375C35.3557 33.7188 33.7188 35.3557 33.7188 37.375V39C33.7188 41.0193 35.3557 42.6562 37.375 42.6562H42.6562C44.6755 42.6562 46.3125 41.0193 46.3125 39V37.375C46.3125 35.3557 44.6755 33.7188 42.6562 33.7188Z" stroke="black" stroke-width="1.84"/>
</svg>
