<svg width="55" height="55" viewBox="0 0 55 55" fill="none" xmlns="http://www.w3.org/2000/svg">
<path d="M19.4964 29.5455L23.4509 24.9605C23.8116 24.5422 23.765 23.9108 23.3467 23.5501C22.9284 23.1895 22.297 23.236 21.9363 23.6542L17.4194 28.8913C17.0961 29.2661 17.0957 29.8211 17.4185 30.1965L21.9354 35.4491C22.1332 35.6791 22.4128 35.797 22.694 35.797C22.9249 35.797 23.1568 35.7175 23.3456 35.5552C23.7644 35.1951 23.8119 34.5637 23.4518 34.1449L19.4964 29.5455ZM32.9899 23.6554C32.6297 23.2366 31.9982 23.1892 31.5797 23.5492C31.1609 23.9093 31.1134 24.5407 31.4735 24.9595L35.4289 29.559L31.4744 34.1441C31.1137 34.5624 31.1603 35.1938 31.5786 35.5545C31.7675 35.7175 31.9999 35.7973 32.2313 35.7973C32.5121 35.7973 32.7912 35.6797 32.989 35.4504L37.506 30.2132C37.8293 29.8383 37.8297 29.2834 37.5069 28.908L32.9899 23.6554ZM29.5138 22.2841C28.9846 22.1259 28.4274 22.4264 28.2691 22.9555L24.4937 35.5759C24.3354 36.105 24.636 36.6623 25.1651 36.8205C25.2607 36.8491 25.3572 36.8628 25.4521 36.8628C25.8825 36.8628 26.2801 36.5826 26.4098 36.1491L30.1852 23.5287C30.3436 22.9996 30.0429 22.4423 29.5138 22.2841Z" fill="black"/>
<path d="M51.6 8.69995H3.40002C2.02152 8.69995 0.900024 9.82145 0.900024 11.2V43.9C0.900024 45.2785 2.02152 46.4 3.40002 46.4H51.6C52.9785 46.4 54.1 45.2785 54.1 43.9V11.2C54.1 9.82145 52.9785 8.69995 51.6 8.69995ZM3.40002 10.7H51.6C51.8757 10.7 52.1 10.9243 52.1 11.2V15H2.90002V11.2C2.90002 10.9243 3.12432 10.7 3.40002 10.7ZM51.6 44.4H3.40002C3.12432 44.4 2.90002 44.1757 2.90002 43.9V17H52.1V43.9C52.1 44.1757 51.8757 44.4 51.6 44.4Z" fill="black"/>
<path d="M7.8208 13.7813C8.37309 13.7813 8.8208 13.3335 8.8208 12.7813C8.8208 12.229 8.37309 11.7812 7.8208 11.7812C7.26852 11.7812 6.8208 12.229 6.8208 12.7813C6.8208 13.3335 7.26852 13.7813 7.8208 13.7813Z" fill="black"/>
<path d="M11.4208 13.7813C11.9731 13.7813 12.4208 13.3335 12.4208 12.7813C12.4208 12.229 11.9731 11.7812 11.4208 11.7812C10.8685 11.7812 10.4208 12.229 10.4208 12.7813C10.4208 13.3335 10.8685 13.7813 11.4208 13.7813Z" fill="black"/>
<path d="M15.0208 13.7813C15.5731 13.7813 16.0208 13.3335 16.0208 12.7813C16.0208 12.229 15.5731 11.7812 15.0208 11.7812C14.4685 11.7812 14.0208 12.229 14.0208 12.7813C14.0208 13.3335 14.4685 13.7813 15.0208 13.7813Z" fill="black"/>
</svg>
