<svg width="64" height="64" viewBox="0 0 64 64" fill="none" xmlns="http://www.w3.org/2000/svg">
<g clip-path="url(#clip0_278_562)">
<path d="M31.93 44.05C31.04 43.73 30.11 43.41 29.22 43.02C28.73 42.81 28.24 42.69 27.75 42.63V40.78C28.8879 39.2757 29.5308 37.4553 29.59 35.57C30.3 34.67 30.91 33.76 31.39 32.84C31.95 31.77 32.26 30.61 32.32 29.39L32.54 24.57V24.43C32.33 22.3 30.44 21.37 29.14 21.09C28.04 19.39 23.48 13.52 14.57 17.02C13.1055 17.5949 11.8026 18.5169 10.7731 19.7066C9.74368 20.8963 9.01853 22.3182 8.66001 23.85C7.91001 27.02 8.72001 32.12 11.33 35.36C11.35 37.39 12.03 39.27 13.18 40.78V42.18C13.08 42.23 12.98 42.29 12.88 42.35C12.49 42.58 11.82 42.96 11.67 43.03C10.79 43.41 9.88001 43.73 9.00001 44.04C5.70001 45.21 2.28001 46.41 0.750014 50.63C0.250014 52.15 -0.119986 53.55 0.0600138 56.53C0.0900138 57.04 0.520014 57.44 1.03001 57.44H39.92C40.43 57.44 40.86 57.04 40.89 56.53C41.07 53.55 40.7 52.15 40.19 50.6C38.65 46.43 35.24 45.22 31.93 44.05ZM12.29 27.98C11.75 27.98 11.32 28.41 11.32 28.95V31.49C10.34 29.03 10.1 26.21 10.54 24.31C11.13 21.81 12.89 19.77 15.27 18.84C23.91 15.45 27.52 22.15 27.67 22.44C27.82 22.73 28.11 22.93 28.44 22.96C28.46 22.96 30.39 23.16 30.59 24.58L30.37 29.32C30.33 30.25 30.09 31.14 29.66 31.96C29.64 32 29.61 32.04 29.59 32.07V27.55C29.59 27.2 29.41 26.88 29.11 26.71C28.962 26.6264 28.795 26.5825 28.625 26.5825C28.4551 26.5825 28.288 26.6264 28.14 26.71C27.47 27.1 25.65 25.6 24.65 24.35C24.5393 24.2125 24.3936 24.1074 24.2281 24.0458C24.0627 23.9842 23.8837 23.9684 23.71 24C23.36 24.07 23.07 24.32 22.96 24.66C22.31 26.75 20.05 27.76 19.48 27.99H12.29V27.98ZM20.46 42.5C16.49 42.5 13.26 39.27 13.26 35.3V29.92H19.66C19.76 29.92 19.87 29.9 19.96 29.87C20.09 29.83 22.7 28.94 24.15 26.67C25.04 27.54 26.35 28.58 27.66 28.69V35.3C27.66 39.27 24.43 42.5 20.46 42.5ZM25.81 42.69V43.36C25.24 45.84 22.54 47.59 20.49 47.52C17.16 47.39 15.39 44.35 15.1 43.35V42.68C16.6538 43.8136 18.5266 44.4262 20.45 44.43C22.3774 44.4423 24.2573 43.8321 25.81 42.69ZM38.98 55.52H1.94001C1.90001 53.5 2.18001 52.46 2.56001 51.29C3.77001 47.96 6.48001 47 9.62001 45.89C10.53 45.57 11.47 45.24 12.39 44.84C12.56 44.77 12.85 44.61 13.37 44.31C14.13 46.32 16.58 49.33 20.41 49.47H20.61C23.25 49.47 26.39 47.56 27.47 44.54C27.79 44.58 28.11 44.65 28.45 44.8C29.4 45.21 30.36 45.55 31.28 45.87C34.42 46.98 37.13 47.94 38.34 51.24C38.74 52.45 39.02 53.5 38.98 55.52ZM60 6.54004H39.37C37.16 6.54004 35.37 8.34004 35.37 10.54V23.75C35.37 25.96 37.17 27.75 39.37 27.75H40.28V30.23C40.28 30.59 40.48 30.92 40.79 31.09C40.93 31.17 41.09 31.2 41.25 31.2C41.44 31.2 41.63 31.14 41.79 31.04L46.71 27.76H60C62.21 27.76 64 25.96 64 23.76V10.55C64 8.34004 62.2 6.54004 60 6.54004ZM62.06 23.75C62.06 24.89 61.13 25.81 60 25.81H46.41C46.22 25.81 46.03 25.87 45.87 25.97L42.22 28.41V26.78C42.22 26.24 41.79 25.81 41.25 25.81H39.37C38.23 25.81 37.31 24.88 37.31 23.75V10.55C37.31 9.41004 38.24 8.49004 39.37 8.49004H60C61.14 8.49004 62.06 9.42004 62.06 10.55V23.75Z" fill="black"/>
<path d="M56.94 12.3301H42.43C41.89 12.3301 41.46 12.7601 41.46 13.3001C41.46 13.8401 41.89 14.2701 42.43 14.2701H56.94C57.1972 14.2701 57.4439 14.1679 57.6259 13.986C57.8078 13.8041 57.91 13.5573 57.91 13.3001C57.91 13.0428 57.8078 12.7961 57.6259 12.6142C57.4439 12.4323 57.1972 12.3301 56.94 12.3301ZM43.9 17.9001H42.91C42.37 17.9001 41.94 18.3301 41.94 18.8701C41.94 19.4101 42.37 19.8401 42.91 19.8401H43.9C44.44 19.8401 44.87 19.4101 44.87 18.8701C44.87 18.3401 44.43 17.9001 43.9 17.9001ZM50.18 17.9001H49.19C48.65 17.9001 48.22 18.3301 48.22 18.8701C48.22 19.4101 48.65 19.8401 49.19 19.8401H50.18C50.72 19.8401 51.15 19.4101 51.15 18.8701C51.15 18.3401 50.71 17.9001 50.18 17.9001ZM56.46 17.9001H55.47C54.93 17.9001 54.5 18.3301 54.5 18.8701C54.5 19.4101 54.93 19.8401 55.47 19.8401H56.46C57 19.8401 57.43 19.4101 57.43 18.8701C57.4263 18.6139 57.323 18.3693 57.1419 18.1882C56.9607 18.0071 56.7161 17.9037 56.46 17.9001Z" fill="black"/>
</g>
<defs>
<clipPath id="clip0_278_562">
<rect width="64" height="64" fill="white"/>
</clipPath>
</defs>
</svg>
