<svg width="65" height="65" viewBox="0 0 65 65" fill="none" xmlns="http://www.w3.org/2000/svg">
<g clip-path="url(#clip0_277_593)">
<path d="M40.0451 36.238C42.9328 33.7492 43.7365 29.4939 41.8827 26.106C40.0288 22.7181 36.0118 21.1006 32.3587 22.1913L29.2221 16.4591C29.2899 15.887 29.3262 15.3057 29.3262 14.7266C29.3262 6.67634 22.7768 0.126953 14.7266 0.126953C6.67634 0.126953 0.126953 6.67634 0.126953 14.7266C0.126953 22.7007 6.55332 29.201 14.4989 29.3233L11.2498 34.7634L2.88069 39.343C2.57334 39.5114 2.46048 39.8972 2.62856 40.2047L3.88147 42.4941L1.44765 43.86C0.219502 44.532 -0.232832 46.078 0.439258 47.3062L1.71971 49.646C2.41274 50.9128 3.99839 51.3113 5.17182 50.6513L7.59967 49.2888L8.8461 51.5665C9.01405 51.8737 9.40012 51.9871 9.7076 51.8185L11.0444 51.087L18.4077 64.543C18.5757 64.8502 18.9617 64.9636 19.2692 64.795L24.0032 62.2046C24.3106 62.0363 24.4236 61.6506 24.2552 61.343L21.3243 55.9871L22.0718 55.578C23.098 55.0165 23.476 53.7248 22.9145 52.6985C22.3526 51.6717 21.0656 51.2919 20.035 51.8558L19.2875 52.2648L16.8919 47.8871L18.078 47.238L24.9352 47.4505C24.9016 47.7523 24.8828 48.0586 24.8828 48.3691C24.8828 52.9193 28.5846 56.6211 33.1348 56.6211C37.6849 56.6211 41.3867 52.9193 41.3867 48.3691C41.3867 47.8546 41.3371 47.3517 41.2464 46.863L44.2394 45.2253C44.5467 45.0571 44.6597 44.6711 44.4914 44.3636L40.0451 36.238ZM4.55356 49.5423C3.93986 49.8762 3.16862 49.6497 2.83296 49.0367L1.55264 46.6968C1.21659 46.0827 1.44282 45.3097 2.06286 44.9704L4.49071 43.6079C4.99624 44.5317 6.18503 46.7041 6.98991 48.1752L4.55356 49.5423ZM1.39648 14.7266C1.39648 7.37623 7.37636 1.39648 14.7266 1.39648C21.9397 1.39648 27.8322 7.15533 28.0498 14.3165L27.9129 14.0663C27.7446 13.7589 27.3592 13.6462 27.0514 13.8142L24.2246 15.3606C24.2385 15.1496 24.2482 14.9382 24.2482 14.7264C24.2482 9.47629 19.977 5.20495 14.7267 5.20495C9.47642 5.20495 5.20521 9.47616 5.20521 14.7264C5.20521 19.9767 9.47642 24.2479 14.7267 24.2479C15.796 24.2479 16.8477 24.0685 17.8433 23.7239L15.2628 28.0443C7.67914 28.3493 1.39648 22.2607 1.39648 14.7266ZM20.9022 12.7823L13.7896 19.8947C13.542 20.1426 13.1398 20.1426 12.8921 19.8947L8.56502 15.5676C8.31784 15.3207 8.31645 14.9185 8.56502 14.6699L10.3605 12.8746C10.6082 12.6269 11.0104 12.6268 11.2581 12.8747L13.3409 14.9574L18.2093 10.0891C18.457 9.84115 18.8591 9.84115 19.1068 10.0891L20.9023 11.8846C21.1498 12.132 21.1504 12.5343 20.9022 12.7823ZM22.8368 61.3955L19.2165 63.3767L12.1579 50.4776L15.7782 48.4965C23.0327 61.7534 16.8805 50.5107 22.8368 61.3955ZM25.1777 46.1877L18.3071 45.9748C18.1831 45.7482 13.133 36.521 12.4377 35.2506L22.5979 18.2392C23.0043 18.9819 34.2367 39.5087 34.647 40.2584C34.1562 40.1672 33.6513 40.1172 33.1348 40.1172C29.3398 40.1172 26.1369 42.6931 25.1777 46.1877ZM35.3276 49.7047L33.1948 50.936C32.9535 51.0754 32.6887 51.145 32.4238 51.145C32.159 51.145 31.8942 51.0753 31.6528 50.936C31.1699 50.6573 30.8817 50.1579 30.8817 49.6003V47.1377C30.8817 46.5801 31.17 46.0808 31.6528 45.8021C32.1356 45.5235 32.7121 45.5235 33.1948 45.8021L35.3276 47.0335C35.8106 47.3123 36.0987 47.8116 36.0987 48.3691C36.0987 48.9267 35.8106 49.4259 35.3276 49.7047ZM40.9076 45.6011C40.1343 43.4364 38.4819 41.6863 36.3816 40.7838L23.4835 17.2131L27.1039 15.2326C27.8481 16.5926 42.1782 42.7804 43.0733 44.4162L40.9076 45.6011Z" fill="black"/>
<path d="M34.693 48.1329L32.5602 46.9016C32.5116 46.8736 32.4656 46.8635 32.4247 46.8635C32.366 46.8635 32.3177 46.8842 32.2877 46.9016C32.2368 46.9309 32.1514 47.0008 32.1514 47.1377V49.6004C32.1514 49.7374 32.2368 49.8072 32.2877 49.8365C32.3387 49.866 32.4419 49.9048 32.5602 49.8365L34.693 48.6052C34.8117 48.5366 34.8293 48.4278 34.8293 48.3691C34.8293 48.3103 34.8117 48.2015 34.693 48.1329ZM13.7897 16.3041C13.542 16.5521 13.1398 16.5521 12.8921 16.3041L10.8093 14.2213L9.91162 15.1189L13.341 18.5483L19.5559 12.3335L18.6582 11.4359L13.7897 16.3041ZM48.6872 21.876C48.9947 21.7076 49.1075 21.322 48.9393 21.0144C48.7711 20.707 48.3854 20.594 48.0777 20.7622L45.2372 22.3165C44.9297 22.4848 44.8168 22.8705 44.9851 23.1781C45.1527 23.4841 45.5375 23.5992 45.8467 23.4303L48.6872 21.876ZM40.1772 18.9538C40.4777 19.1367 40.8679 19.0397 41.0494 18.7414L42.7322 15.9751C42.9145 15.6756 42.8194 15.285 42.5198 15.1029C42.2207 14.9207 41.8299 15.0158 41.6476 15.3153L39.9649 18.0816C39.7826 18.3811 39.8776 18.7716 40.1772 18.9538ZM33.9013 17.6994C33.9063 17.6995 33.9111 17.6995 33.916 17.6995C34.2598 17.6995 34.5426 17.4248 34.5504 17.0792L34.6246 13.8421C34.6326 13.4916 34.3549 13.201 34.0044 13.193C33.6586 13.1843 33.3633 13.4627 33.3553 13.8132L33.2812 17.0502C33.2733 17.4006 33.5508 17.6912 33.9013 17.6994ZM49.4207 36.9867L46.6544 35.3039C46.3553 35.1218 45.9645 35.217 45.7822 35.5163C45.5999 35.8158 45.695 36.2065 45.9946 36.3885L48.7609 38.0713C49.0614 38.2542 49.4516 38.1572 49.6331 37.8589C49.8153 37.5594 49.7202 37.1689 49.4207 36.9867ZM50.9228 28.6945L47.6858 28.6204C47.3384 28.6164 47.0448 28.89 47.0367 29.2405C47.0287 29.591 47.3063 29.8816 47.6568 29.8896L50.8939 29.9638C50.8988 29.9639 50.9037 29.9639 50.9086 29.9639C51.2524 29.9639 51.5351 29.6892 51.543 29.3436C51.5509 28.9932 51.2733 28.7026 50.9228 28.6945ZM64.2384 3.86438H45.1955C44.8448 3.86438 44.5607 4.1485 44.5607 4.49915V15.2902C44.5607 15.6408 44.8448 15.9249 45.1955 15.9249H49.004V17.8292C49.004 18.3039 49.5044 18.6064 49.9227 18.397L54.8667 15.9249H64.2384C64.5891 15.9249 64.8732 15.6408 64.8732 15.2902V4.49915C64.8732 4.14863 64.5889 3.86438 64.2384 3.86438ZM61.0646 12.1163H48.3693C48.0186 12.1163 47.7345 11.8322 47.7345 11.4816C47.7345 11.1309 48.0186 10.8468 48.3693 10.8468H61.0646C61.4152 10.8468 61.6994 11.1309 61.6994 11.4816C61.6994 11.8322 61.4151 12.1163 61.0646 12.1163ZM61.0646 8.94251H48.3693C48.0186 8.94251 47.7345 8.65838 47.7345 8.30774C47.7345 7.9571 48.0186 7.67297 48.3693 7.67297H61.0646C61.4152 7.67297 61.6994 7.9571 61.6994 8.30774C61.6994 8.65838 61.4151 8.94251 61.0646 8.94251Z" fill="black"/>
</g>
<defs>
<clipPath id="clip0_277_593">
<rect width="65" height="65" fill="white"/>
</clipPath>
</defs>
</svg>
