<svg width="62" height="62" viewBox="0 0 62 62" fill="none" xmlns="http://www.w3.org/2000/svg">
<path d="M45.5728 1.90906H15.1546C12.6546 1.90906 10.6091 3.94542 10.6091 6.45451V55.5C10.6091 58 12.6455 60.0454 15.1546 60.0454H45.5819C48.0819 60.0454 50.1273 58.0091 50.1273 55.5V6.44542C50.1182 3.94542 48.0819 1.90906 45.5728 1.90906ZM12.8819 10.3091H47.8455V50.5H12.8819V10.3091ZM15.1546 4.18178H45.5819C46.8364 4.18178 47.8546 5.19997 47.8546 6.45451V8.04542H12.8819V6.44542C12.8819 5.19997 13.9 4.18178 15.1546 4.18178ZM45.5728 57.7636H15.1546C13.9 57.7636 12.8819 56.7454 12.8819 55.4909V52.7636H47.8455V55.4909C47.8455 56.7454 46.8273 57.7636 45.5728 57.7636Z" fill="black"/>
<path d="M30.3545 54.1274C29.7273 54.1274 29.2182 54.6365 29.2182 55.2637C29.2182 55.891 29.7273 56.4001 30.3545 56.4001H30.3636C30.9909 56.4001 31.4909 55.891 31.4909 55.2637C31.4909 54.6365 30.9818 54.1274 30.3545 54.1274ZM44.4455 12.5819H16.2909C15.6636 12.5819 15.1545 13.091 15.1545 13.7183V30.9728C15.1545 31.6001 15.6636 32.1092 16.2909 32.1092H44.4455C45.0727 32.1092 45.5818 31.6001 45.5818 30.9728V13.7183C45.5727 13.091 45.0727 12.5819 44.4455 12.5819ZM17.4182 15.7455L28.1909 22.3455L17.4182 28.9455V15.7455ZM20.3091 14.8546H40.4182L30.3636 21.0183L20.3091 14.8546ZM30.3636 23.6819L40.4182 29.8455H20.3091L30.3636 23.6819ZM32.5364 22.3455L43.3091 15.7455V28.9455L32.5364 22.3455ZM44.4455 34.3819H16.2909C15.6636 34.3819 15.1545 34.891 15.1545 35.5183V40.5092C15.1545 41.1365 15.6636 41.6455 16.2909 41.6455H44.4455C45.0727 41.6455 45.5818 41.1365 45.5818 40.5092V35.5183C45.5727 34.891 45.0727 34.3819 44.4455 34.3819ZM43.3091 39.3819H17.4182V36.6546H43.3V39.3819H43.3091ZM44.4455 44.3637C44.1455 44.3637 43.8545 44.4819 43.6455 44.7001C43.4364 44.9092 43.3091 45.2001 43.3091 45.5001C43.3091 45.8001 43.4273 46.091 43.6455 46.3001C43.8545 46.5092 44.1455 46.6365 44.4455 46.6365C44.7455 46.6365 45.0364 46.5183 45.2455 46.3001C45.4545 46.091 45.5818 45.8001 45.5818 45.5001C45.5818 45.2001 45.4636 44.9092 45.2455 44.7001C45.0364 44.491 44.7364 44.3637 44.4455 44.3637ZM28.1909 44.3637C27.8909 44.3637 27.6 44.4819 27.3909 44.7001C27.1818 44.9092 27.0545 45.2001 27.0545 45.5001C27.0545 45.8001 27.1727 46.091 27.3909 46.3001C27.6 46.5092 27.8909 46.6365 28.1909 46.6365C28.4909 46.6365 28.7818 46.5183 28.9909 46.3001C29.2 46.091 29.3273 45.8001 29.3273 45.5001C29.3273 45.2001 29.2091 44.9092 28.9909 44.7001C28.7818 44.491 28.4909 44.3637 28.1909 44.3637ZM23.3273 44.3637C23.0273 44.3637 22.7364 44.4819 22.5273 44.7001C22.3182 44.9092 22.1909 45.2001 22.1909 45.5001C22.1909 45.8001 22.3091 46.091 22.5273 46.3001C22.7364 46.5092 23.0273 46.6365 23.3273 46.6365C23.6273 46.6365 23.9182 46.5183 24.1273 46.3001C24.3364 46.091 24.4636 45.8001 24.4636 45.5001C24.4636 45.2001 24.3454 44.9092 24.1273 44.7001C23.9273 44.491 23.6273 44.3637 23.3273 44.3637ZM18.5545 44.3637C18.2545 44.3637 17.9636 44.4819 17.7545 44.7001C17.5455 44.9092 17.4182 45.2001 17.4182 45.5001C17.4182 45.8001 17.5364 46.091 17.7545 46.3001C17.9636 46.5092 18.2545 46.6365 18.5545 46.6365C18.8545 46.6365 19.1454 46.5183 19.3545 46.3001C19.5636 46.091 19.6909 45.8001 19.6909 45.5001C19.6909 45.2001 19.5727 44.9092 19.3545 44.7001C19.1454 44.491 18.8545 44.3637 18.5545 44.3637ZM39.9 44.3637H33.1C32.4727 44.3637 31.9636 44.8728 31.9636 45.5001C31.9636 46.1274 32.4727 46.6365 33.1 46.6365H39.9C40.5273 46.6365 41.0364 46.1274 41.0364 45.5001C41.0364 44.8728 40.5273 44.3637 39.9 44.3637Z" fill="black"/>
</svg>
