<svg width="58" height="58" viewBox="0 0 58 58" fill="none" xmlns="http://www.w3.org/2000/svg">
<g clip-path="url(#clip0_277_583)">
<path fill-rule="evenodd" clip-rule="evenodd" d="M50.4376 24.5129C50.4376 18.3492 50.4376 11.7764 50.4376 8.93323C50.4376 7.43187 49.2202 6.21448 47.7189 6.21448H3.02081C1.51946 6.21448 0.302063 7.43187 0.302063 8.93323C0.302063 15.3525 0.302063 36.9629 0.302063 43.3816C0.302063 44.8836 1.51946 46.1003 3.02081 46.1003H24.2911C24.7914 46.1003 25.1974 45.6943 25.1974 45.1941C25.1974 44.6945 24.7914 44.2878 24.2911 44.2878H3.02081C2.52056 44.2878 2.11456 43.8825 2.11456 43.3816V8.93323C2.11456 8.43298 2.52056 8.02698 3.02081 8.02698H47.7189C48.2191 8.02698 48.6251 8.43298 48.6251 8.93323V24.5129C48.6251 25.0125 49.0311 25.4191 49.5314 25.4191C50.0316 25.4191 50.4376 25.0125 50.4376 24.5129Z" fill="black"/>
<path fill-rule="evenodd" clip-rule="evenodd" d="M8.82685 25.3044L5.60725 28.5234C5.25381 28.8774 5.25381 29.4514 5.60725 29.8054L8.64923 32.8468C9.00267 33.2002 9.57723 33.2002 9.93067 32.8468C10.2841 32.4934 10.2841 31.9188 9.93067 31.5654L7.52971 29.1644L10.1083 26.5858C10.4623 26.2324 10.4623 25.6578 10.1083 25.3044C9.75485 24.9504 9.18029 24.9504 8.82685 25.3044ZM18.6542 26.5858L21.2328 29.1644L18.8319 31.5654C18.4784 31.9188 18.4784 32.4934 18.8319 32.8468C19.1853 33.2002 19.7599 33.2002 20.1133 32.8468L23.1553 29.8054C23.5093 29.4514 23.5093 28.8774 23.1553 28.5234L19.9357 25.3044C19.5822 24.9504 19.0077 24.9504 18.6542 25.3044C18.3002 25.6578 18.3002 26.2324 18.6542 26.5858ZM12.6893 36.7304L17.5117 22.7198C17.6749 22.2467 17.4229 21.7307 16.9499 21.5676C16.4774 21.4051 15.9609 21.657 15.7983 22.1301L10.9753 36.1407C10.8127 36.6138 11.0641 37.1297 11.5371 37.2923C12.0102 37.4554 12.5262 37.2035 12.6893 36.7304ZM1.20831 16.0039H49.5314C50.0316 16.0039 50.4376 15.5979 50.4376 15.0976C50.4376 14.5974 50.0316 14.1914 49.5314 14.1914H1.20831C0.708063 14.1914 0.302063 14.5974 0.302063 15.0976C0.302063 15.5979 0.708063 16.0039 1.20831 16.0039ZM45.2883 10.2032H43.2637C42.7635 10.2032 42.3575 10.6092 42.3575 11.1095C42.3575 11.6091 42.7635 12.0157 43.2637 12.0157H45.2883C45.7886 12.0157 46.1946 11.6091 46.1946 11.1095C46.1946 10.6092 45.7886 10.2032 45.2883 10.2032ZM38.5355 10.2032H36.511C36.0107 10.2032 35.6047 10.6092 35.6047 11.1095C35.6047 11.6091 36.0107 12.0157 36.511 12.0157H38.5355C39.0358 12.0157 39.4418 11.6091 39.4418 11.1095C39.4418 10.6092 39.0358 10.2032 38.5355 10.2032ZM35.4942 40.5221H56.7916C57.2919 40.5221 57.6979 40.1167 57.6979 39.6159V30.4144C57.6979 29.6635 57.4647 28.9469 57.0702 28.4159C56.5941 27.776 55.9325 27.4468 55.2595 27.4468H29.3341C28.661 27.4468 27.9989 27.776 27.5228 28.4159C27.1283 28.9469 26.8951 29.6635 26.8951 30.4144C26.8951 33.6649 26.8951 39.6159 26.8951 39.6159C26.8951 40.1167 27.3011 40.5221 27.8013 40.5221H31.6064C32.106 40.5221 32.5126 40.1161 32.5126 39.6159C32.5126 39.1156 32.106 38.7096 31.6064 38.7096H28.7076V30.4144C28.7076 30.0719 28.7976 29.7396 28.9776 29.4973C29.0767 29.3638 29.1933 29.2593 29.3341 29.2593H55.2595C55.3996 29.2593 55.5162 29.3638 55.6153 29.4973C55.7954 29.7396 55.8854 30.0719 55.8854 30.4144V38.7096H35.4942C34.9939 38.7096 34.5879 39.1156 34.5879 39.6159C34.5879 40.1161 34.9939 40.5221 35.4942 40.5221Z" fill="black"/>
<path fill-rule="evenodd" clip-rule="evenodd" d="M26.8951 39.6158V49.0668C26.8951 50.5682 28.1125 51.7856 29.6138 51.7856H54.9792C56.4805 51.7856 57.6979 50.5682 57.6979 49.0668V39.6158C57.6979 39.1156 57.2919 38.7096 56.7917 38.7096C56.2914 38.7096 55.8854 39.1156 55.8854 39.6158V49.0668C55.8854 49.5671 55.4794 49.9731 54.9792 49.9731H29.6138C29.1136 49.9731 28.7076 49.5671 28.7076 49.0668V39.6158C28.7076 39.1156 28.3016 38.7096 27.8013 38.7096C27.3017 38.7096 26.8951 39.1156 26.8951 39.6158Z" fill="black"/>
<path fill-rule="evenodd" clip-rule="evenodd" d="M32.9114 46.1535H35.812C36.3122 46.1535 36.7182 45.7475 36.7182 45.2472C36.7182 44.7476 36.3122 44.341 35.812 44.341H32.9114C32.4111 44.341 32.0051 44.7476 32.0051 45.2472C32.0051 45.7475 32.4111 46.1535 32.9114 46.1535ZM32.9114 34.8906H35.812C36.3122 34.8906 36.7182 34.4846 36.7182 33.9844C36.7182 33.4841 36.3122 33.0781 35.812 33.0781H32.9114C32.4111 33.0781 32.0051 33.4841 32.0051 33.9844C32.0051 34.4846 32.4111 34.8906 32.9114 34.8906ZM40.8459 34.8906H43.7471C44.2474 34.8906 44.6534 34.4846 44.6534 33.9844C44.6534 33.4841 44.2474 33.0781 43.7471 33.0781H40.8459C40.3463 33.0781 39.9397 33.4841 39.9397 33.9844C39.9397 34.4846 40.3463 34.8906 40.8459 34.8906ZM40.8459 46.1535H43.7471C44.2474 46.1535 44.6534 45.7475 44.6534 45.2472C44.6534 44.7476 44.2474 44.341 43.7471 44.341H40.8459C40.3463 44.341 39.9397 44.7476 39.9397 45.2472C39.9397 45.7475 40.3463 46.1535 40.8459 46.1535ZM48.781 34.8906H51.6822C52.1825 34.8906 52.5885 34.4846 52.5885 33.9844C52.5885 33.4841 52.1825 33.0781 51.6822 33.0781H48.781C48.2808 33.0781 47.8748 33.4841 47.8748 33.9844C47.8748 34.4846 48.2808 34.8906 48.781 34.8906ZM48.781 46.1535H51.6822C52.1825 46.1535 52.5885 45.7475 52.5885 45.2472C52.5885 44.7476 52.1825 44.341 51.6822 44.341H48.781C48.2808 44.341 47.8748 44.7476 47.8748 45.2472C47.8748 45.7475 48.2808 46.1535 48.781 46.1535Z" fill="black"/>
</g>
<defs>
<clipPath id="clip0_277_583">
<rect width="58" height="58" fill="white"/>
</clipPath>
</defs>
</svg>
