<svg width="62" height="65" viewBox="0 0 62 65" fill="none" xmlns="http://www.w3.org/2000/svg">
<path d="M30.9062 2.5C46.5439 2.5 59.3124 14.9095 59.3125 30.3311V42.5332C59.3125 42.7146 59.3034 42.8909 59.2861 43.0625L59.2549 43.374L59.3018 43.6846C59.3085 43.7296 59.3125 43.7822 59.3125 43.8438C59.3125 46.4993 58.9825 49.4488 58.6484 51.7607C58.2111 54.7783 56.4681 57.547 53.4863 58.7275H53.4854C49.5092 60.3031 42.3558 62.1875 30.9062 62.1875C30.6162 62.1875 30.3379 62.0723 30.1328 61.8672C29.9277 61.6621 29.8125 61.3838 29.8125 61.0938C29.8125 60.8037 29.9277 60.5254 30.1328 60.3203C30.3379 60.1152 30.6162 60 30.9062 60C42.113 60 48.9874 58.1567 52.6797 56.6953L52.6816 56.6943C54.7688 55.8669 56.1308 53.882 56.4824 51.4473V51.4463C56.5151 51.2194 56.5475 50.989 56.5791 50.7549L57.0596 47.2012L53.5586 47.9805C51.5959 48.4174 49.3605 48.8307 47.1641 49.0605H47.1631C45.2381 49.2628 43.617 48.1333 43.3096 46.3027L43.3086 46.3018L43.1992 45.5986C42.9499 43.8605 42.75 41.4253 42.75 38.0928C42.75 34.287 43.0111 31.6511 43.3086 29.8857L43.3096 29.8848C43.617 28.0542 45.2381 26.9247 47.1631 27.127H47.165C48.3208 27.2477 49.4911 27.4198 50.6279 27.6201L54.5049 28.3027L53.4746 24.5039C50.8383 14.7813 41.783 7.5625 30.9062 7.5625C20.0292 7.5625 10.9757 14.7809 8.33789 24.5029L7.30566 28.3096L11.1885 27.6191C12.3358 27.4152 13.4898 27.2503 14.6484 27.126L14.6494 27.127C16.514 26.9311 18.0953 27.9844 18.4727 29.7158L18.5049 29.8857C18.8011 31.6506 19.0625 34.2876 19.0625 38.0938C19.0625 41.8995 18.8012 44.5351 18.5049 46.3018C18.1964 48.1335 16.5741 49.2627 14.6494 49.0605H14.6484C11.6517 48.747 8.59731 48.0939 6.26855 47.5117H6.26953C4.01567 46.9472 2.5 44.887 2.5 42.5342V30.3311C2.50011 14.9095 15.2686 2.5 30.9062 2.5Z" stroke="#FB6D53" stroke-width="5"/>
</svg>
